<svg xmlns="http://www.w3.org/2000/svg" xml:space="preserve" width="1038.0792" height="399.99997" viewBox="0 0 1038.0792 399.99996"><defs><radialGradient id="a" cx="0" cy="0" r="1" fx="0" fy="0" gradientTransform="matrix(-150.31171 0 0 150.31176 578.59 582.08)" gradientUnits="userSpaceOnUse" spreadMethod="pad"><stop offset="0" style="stop-opacity:1;stop-color:#cce310"/><stop offset="0.600006" style="stop-opacity:1;stop-color:#66c430"/><stop offset="1" style="stop-opacity:1;stop-color:#66c430"/></radialGradient><radialGradient id="c" cx="0" cy="0" r="1" fx="0" fy="0" gradientTransform="matrix(150.30765 0 0 -150.30765 386.28 572.952)" gradientUnits="userSpaceOnUse" spreadMethod="pad"><stop offset="0" style="stop-opacity:1;stop-color:#cce310"/><stop offset="0.600006" style="stop-opacity:1;stop-color:#66c430"/><stop offset="1" style="stop-opacity:1;stop-color:#66c430"/></radialGradient><linearGradient id="b" x1="0" x2="1" y1="0" y2="0" gradientTransform="scale(72.44505) rotate(90 .11 6.55)" gradientUnits="userSpaceOnUse" spreadMethod="pad"><stop offset="0" style="stop-opacity:1;stop-color:#00adef"/><stop offset="0.5" style="stop-opacity:1;stop-color:#00adef"/><stop offset="0.56874989" style="stop-opacity:1;stop-color:#00adef"/><stop offset="1" style="stop-opacity:1;stop-color:#137bb0"/></linearGradient><linearGradient id="d" x1="0" x2="1" y1="0" y2="0" gradientTransform="matrix(0 -72.4419 -72.4419 0 482.401 688.407)" gradientUnits="userSpaceOnUse" spreadMethod="pad"><stop offset="0" style="stop-opacity:1;stop-color:#00adef"/><stop offset="0.5" style="stop-opacity:1;stop-color:#00adef"/><stop offset="0.56874989" style="stop-opacity:1;stop-color:#00adef"/><stop offset="1" style="stop-opacity:1;stop-color:#137bb0"/></linearGradient></defs><path d="M445.905 511.457c4.994 34.297 64.132 29.1 73.49 29.1h36.973c20.411 0 36.96 16.542 36.96 36.947 0 17.85-12.634 32.73-29.435 36.196-3.486.472-7.03.714-10.617.714-36.816 0-102.174-63.892-107.37-102.957" style="fill:url(#a);stroke:none;stroke-width:3.27889" transform="matrix(1.33333 0 0 -1.33333 246.976 917.875)"/><path d="M445.905 511.457c-.036-.265-.092-.55-.121-.813a10.651 10.651 0 0 1-.069-.728 33.27 33.27 0 0 1-.177-3.243c0-3.574.246-7.112.702-10.59 3.469-16.815 18.358-29.458 36.199-29.458 20.404 0 36.956 16.545 36.956 36.96v36.972c-2.177 0-7.05.28-13.306.28-20.64.002-56.354-3.06-60.184-29.38" style="fill:url(#b);stroke:none;stroke-width:3.27889" transform="matrix(1.33333 0 0 -1.33333 246.976 917.875)"/><path d="M445.476 614.48H408.5c-20.415 0-36.957-16.548-36.957-36.956 0-17.84 12.637-32.724 29.435-36.2a80.21 80.21 0 0 1 10.61-.708c36.826 0 102.187 63.9 107.374 102.961-4.99-34.297-64.125-29.097-73.486-29.097" style="fill:url(#c);stroke:none;stroke-width:3.27889" transform="matrix(1.33333 0 0 -1.33333 246.976 917.875)"/><path d="M445.476 651.45v-36.97c9.36 0 68.496-5.2 73.486 29.097.043.266.092.541.125.807.033.249.05.491.072.734.102 1.098.17 2.187.17 3.246 0 3.574-.239 7.106-.701 10.591-3.466 16.81-18.362 29.451-36.19 29.451-20.414 0-36.962-16.552-36.962-36.956" style="fill:url(#d);stroke:none;stroke-width:3.27889" transform="matrix(1.33333 0 0 -1.33333 246.976 917.875)"/><path d="M-159.378 606.521v-6.41c0-8.004 5.174-13.25 10.496-14.562-.679-.593-2.548-2.232-2.76-2.416-4.329.416-9.444 4.056-10.588 7.574l-.338 1.05-.325-1.053c-1.062-3.394-6.253-7.102-10.545-7.571-.216.184-2.115 1.823-2.806 2.416 5.321 1.305 10.495 6.552 10.495 14.562v6.41zM-160.578 578.555V568.15h22.568v-3.296h-24.346c-2.711 0-4.538 1.735-4.538 4.325v9.375zM-139.57 607.197v-9.093h7.02v-3.308h-7.02v-18.713h-6.318v31.114zM-117.175 589.262c-2.885 0-5.236 3.286-5.236 7.312 0 4.04 2.35 7.322 5.236 7.322 2.918 0 5.286-3.282 5.286-7.322 0-4.026-2.368-7.312-5.286-7.312m18.132 17.936v-8.476h-6.708l-.066.265c-1.233 4.833-5.908 8.21-11.358 8.21-6.37 0-11.555-4.744-11.555-10.567 0-5.827 5.184-10.571 11.555-10.571 5.84 0 10.676 3.836 11.51 9.122l.045.298h6.577v-9.886h6.316v21.605zM-99.51 568.153h-15.216v5.489h15.217zm0 13.935v-5.145h-15.216v5.145h-6.306v-12.91c0-2.59 1.836-4.32 4.587-4.32h23.248v17.23zM-72.032 597.67v4.876h5.669v3.253h-18.02v-3.253h6.137v-4.875c0-7.91-3.508-14.1-8.725-15.815l2.682-2.249c3.728.607 8.115 4.984 9.181 8.427 1.108-3.499 5.476-7.873 9.119-8.433.255.216 2.413 2.032 2.574 2.17-.138.06-.335.131-.335.131-4.958 1.928-8.282 8.27-8.282 15.769m18.945 9.525v-11.693h-4.282v11.693h-5.902v-42.34h5.902v27.398h4.282v-27.399h5.909v42.34zM-25.526 590.6c0-3.439-1.905-6.23-4.256-6.23-2.331 0-4.298 2.857-4.298 6.23 0 3.404 1.967 6.283 4.298 6.283 2.351 0 4.256-2.823 4.256-6.282m5.692 11.705h-6.86v5.155h-6.216v-5.155h-6.813v-3.193h6.144l-1.233-.66c-3.042-1.63-4.856-4.564-4.856-7.852 0-5.083 4.525-9.371 9.886-9.371 5.456 0 9.896 4.203 9.896 9.37 0 3.21-1.866 6.224-4.863 7.857l-1.21.656h6.125zM-2.052 607.197v-42.34H-7.95v27.395h-3.613v-27.396h-5.905v42.34h5.905v-11.692h3.613v11.693zM27.967 590.613h-3.895l.15.46c.371 1.167.552 2.34.552 3.583 0 1.302-.174 2.387-.551 3.41l-.17.476h3.914zm-13.814-3.64c-2.79 0-4.82 3.234-4.82 7.683 0 4.355 2.076 7.63 4.82 7.63 2.722 0 4.774-3.275 4.774-7.63 0-4.377-2.052-7.682-4.774-7.682m13.814 20.224v-5.354h-5.862l-.099.12c-2 2.303-4.859 3.62-7.853 3.62-5.882 0-10.666-4.901-10.666-10.928 0-6 4.784-10.882 10.666-10.882 2.905 0 5.725 1.249 7.752 3.426l.108.112h5.954v-22.454h5.85v42.34zM42.562 564.857h-5.86v42.34h5.86zM65.563 588.797H56.96v7.56h8.603zm0 17.102v-6.289H56.96v6.29H50.64v-16.084c0-2.597 1.777-4.275 4.535-4.275h16.703v20.358zM71.759 566.486c-2.68 0-5.024 2.938-5.024 6.282 0 3.397 2.345 6.378 5.024 6.378 2.606 0 4.98-3.036 4.98-6.378 0-3.285-2.374-6.282-4.98-6.282m0 15.958c-6.204 0-11.247-4.334-11.247-9.676 0-5.397 4.941-9.63 11.247-9.63 6.17 0 11.194 4.319 11.194 9.63 0 5.342-5.024 9.676-11.194 9.676M84.051 607.091v-8.05h7.01v-3.305h-7.01v-12.27H77.73v23.625zM-167.037 406.627h3.292v-7.617h.079l5.121 7.617h3.781l-6.095-8.466 6.587-9.496h-3.987l-5.407 8.444h-.079v-8.444h-3.292z" style="fill:#4f4c4d;fill-opacity:1;fill-rule:nonzero;stroke:none;stroke-width:3.27889" transform="matrix(1.33333 0 0 -1.33333 246.976 917.875)"/><path d="M-147.76 390.93c2.085 0 3.757 1.775 3.757 6.716 0 4.941-1.672 6.718-3.758 6.718-2.088 0-3.757-1.777-3.757-6.718s1.669-6.715 3.757-6.715m0 15.955c3.732 0 7.158-2.777 7.158-9.24 0-6.46-3.426-9.24-7.158-9.24-3.731 0-7.154 2.78-7.154 9.24 0 6.463 3.423 9.24 7.154 9.24M-133.041 398.801c1.748 0 2.935.902 2.935 2.732 0 2.059-1.086 2.574-2.935 2.574h-1.341V398.8zm-4.633 7.827h5.61c3.187 0 5.354-1.446 5.354-4.738 0-2.341-1.472-3.908-3.475-4.22v-.075c.669-.102 1.413-.41 1.98-2.089l2.341-6.84h-3.498l-1.774 5.837c-.443 1.42-1.289 1.882-2.499 1.882h-.747v-7.719h-3.292zM-123.208 406.627h9.444v-2.623h-6.158v-4.79h5.82v-2.62h-5.82v-5.306h6.413v-2.623h-9.699zM-102.03 395.506l-2.268 8.394h-.053l-2.475-8.394zm.693-2.518h-6.178l-1.285-4.321h-3.299l6.027 17.961h3.6l5.787-17.961h-3.393zM-81.498 390.93c2.086 0 3.758 1.775 3.758 6.716 0 4.941-1.672 6.718-3.758 6.718-2.088 0-3.754-1.777-3.754-6.718s1.666-6.715 3.754-6.715m0 15.955c3.735 0 7.155-2.777 7.155-9.24 0-6.46-3.42-9.24-7.155-9.24-3.728 0-7.154 2.78-7.154 9.24 0 6.463 3.426 9.24 7.154 9.24M-59.83 389.051c-.668-.357-2.269-.643-3.892-.643-5.452 0-8.256 3.99-8.256 9.237 0 5.253 2.804 9.24 8.158 9.24 1.83 0 3.322-.492 3.99-.748l-.18-2.957c-.675.33-1.728.977-3.397.977-2.728 0-5.072-1.856-5.072-6.512s2.344-6.505 5.072-6.505c1.597 0 2.653.38 3.397.921zM-45.526 389.051c-.662-.357-2.263-.643-3.886-.643-5.452 0-8.256 3.99-8.256 9.237 0 5.253 2.804 9.24 8.155 9.24 1.83 0 3.325-.492 3.987-.748l-.177-2.957c-.672.33-1.725.977-3.397.977-2.728 0-5.073-1.856-5.073-6.512s2.345-6.505 5.073-6.505c1.593 0 2.65.38 3.397.921zM-39.5 406.627v-11.633c0-2.984.899-3.965 2.83-3.965 1.879 0 2.807.98 2.807 3.965v11.633h3.295v-11.633c0-4.732-2.731-6.588-6.102-6.588-3.397 0-6.122 1.856-6.122 6.588v11.633zM-22.545 398.215c2.062 0 2.96 1 2.96 2.955 0 1.957-.898 2.938-2.96 2.938h-1.23v-5.893zm-4.525 8.41h5.145c3.698 0 5.636-2.055 5.636-5.455 0-3.394-1.938-5.483-5.636-5.483h-1.85v-7.02h-3.295zM-7.178 395.506l-2.263 8.394H-9.5l-2.469-8.394zm.695-2.518h-6.177l-1.289-4.321h-3.292l6.027 17.961h3.597l5.79-17.961h-3.397zM1.467 404.005h-4.013v2.623H8.753v-2.623H4.766v-15.339H1.467ZM11.22 406.628h3.294v-17.962H11.22zM24.785 390.93c2.085 0 3.757 1.775 3.757 6.716 0 4.941-1.672 6.718-3.757 6.718-2.086 0-3.758-1.777-3.758-6.718s1.672-6.715 3.758-6.715m0 15.955c3.73 0 7.157-2.777 7.157-9.24 0-6.46-3.426-9.24-7.157-9.24-3.732 0-7.155 2.78-7.155 9.24 0 6.463 3.423 9.24 7.155 9.24M35.002 406.627h3.909l5.977-14.106h.043v14.106h2.99v-17.962H43.98l-5.942 13.998h-.052v-13.998h-2.984zM60.017 395.506 57.75 403.9h-.053l-2.472-8.394zm.695-2.518h-6.178l-1.288-4.321H49.95l6.027 17.961h3.6l5.79-17.961h-3.396zM67.272 406.627h3.296v-15.339h5.915v-2.623h-9.21zM85.313 392.138c.643-.41 2.053-1.108 3.807-1.108 1.442 0 2.724.8 2.724 2.6 0 1.289-.744 1.856-2.337 2.731l-1.673.925c-1.773.974-2.93 2.397-2.93 4.708 0 3.217 2.648 4.892 5.658 4.892 1.902 0 3.243-.491 3.755-.645l-.151-2.755c-.8.312-1.856.774-3.374.774-1.65 0-2.495-.875-2.495-2.108 0-1.338.901-1.856 1.901-2.423l1.932-1.08c2.111-1.18 3.111-2.317 3.111-4.839 0-3.652-2.593-5.403-6.02-5.403-1.8 0-3.19.259-4.088.796zM106.722 395.506l-2.263 8.394h-.059l-2.469-8.394zm.695-2.518h-6.178l-1.288-4.321h-3.292l6.026 17.961h3.597l5.79-17.961h-3.396zM114.134 406.627h9.083v-2.623h-5.79v-4.889h5.53v-2.63h-5.53v-7.82h-3.293zM126.046 406.627h9.443v-2.623h-6.151v-4.79h5.813v-2.62h-5.813v-5.306h6.407v-2.623h-9.699zM141.56 404.005h-4.01v2.623h11.296v-2.623h-3.99v-15.339h-3.296zM154.896 395.871l-5.302 10.755h3.548l3.502-7.177 3.295 7.177h3.548l-5.299-10.833v-7.125h-3.292zM177.772 404.879c-1.108 0-1.98-.77-1.98-1.958 0-1.311.97-2.265 1.642-3.01 1.003.67 2.266 1.673 2.266 3.164 0 1.158-.823 1.804-1.928 1.804m-1.135-7.951c-.977-.617-1.882-1.496-1.882-3.171 0-1.951 1.65-2.931 2.83-2.931 1.141 0 2.062.596 2.682 1.367zm5.125-6.614c-1.082-1.108-2.01-1.905-4.302-1.905-4.04 0-5.892 2.466-5.892 5.22 0 3.144 2.184 4.613 3.345 5.17-.899 1.112-1.902 2.142-1.902 3.994 0 1.673 1.308 4.093 4.918 4.093 3.315 0 4.551-2.112 4.551-3.915 0-2.417-2.088-3.89-3.318-4.729l2.83-3.685c.77 1.187.98 2.807.98 4.095h2.879c0-1.859-.593-4.56-2.135-6.387l2.83-3.597h-3.502zM195.655 406.627h3.292v-7.312h5.328v7.312h3.296v-17.962h-3.296v7.929h-5.328v-7.929h-3.292zM211.38 406.627h9.444v-2.623h-6.152v-4.79h5.814v-2.62h-5.814v-5.306h6.407v-2.623h-9.699zM232.559 395.506l-2.263 8.394h-.052l-2.472-8.394zm.695-2.518h-6.174l-1.286-4.321h-3.298l6.027 17.961h3.6l5.79-17.961h-3.393zM239.815 406.627h3.292v-15.339h5.921v-2.623h-9.213zM251.473 404.005h-4.013v2.623h11.296v-2.623h-3.988v-15.339h-3.295zM261.2 406.627h3.296v-7.312h5.325v7.312h3.295v-17.962h-3.295v7.929h-5.325v-7.929h-3.295zM290.513 395.506l-2.26 8.394h-.052l-2.472-8.394zm.698-2.518h-6.177l-1.286-4.321h-3.292l6.02 17.961h3.6l5.794-17.961h-3.393zM304.438 398.728h5.817v-9.394c-.931-.489-2.521-.925-4.866-.925-5.764 0-8.823 3.908-8.823 9.237 0 5.325 3.059 9.24 8.823 9.24 2.06 0 3.682-.466 4.378-.774l-.187-2.958c-1.053.643-2.492 1.108-4.132 1.108-3.508 0-5.387-2.882-5.387-6.616 0-4.037 1.83-6.617 5.2-6.617.77 0 1.47.157 1.905.34v4.834h-2.728zM313.961 406.627h9.447v-2.623h-6.155v-4.79h5.814v-2.62h-5.814v-5.306h6.407v-2.623h-9.699zM326.801 406.627h3.912l5.974-14.106h.046v14.106h2.987v-17.962h-3.938l-5.944 13.998h-.053v-13.998h-2.984zM354.928 389.051c-.666-.357-2.266-.643-3.889-.643-5.452 0-8.256 3.99-8.256 9.237 0 5.253 2.804 9.24 8.158 9.24 1.83 0 3.321-.492 3.987-.748l-.177-2.957c-.675.33-1.728.977-3.397.977-2.731 0-5.072-1.856-5.072-6.512s2.34-6.505 5.072-6.505c1.594 0 2.65.38 3.397.921zM361.415 395.871l-5.302 10.755h3.555l3.495-7.177 3.292 7.177h3.558l-5.302-10.833v-7.125h-3.296zM221.476 454.258c0 3.44 1.46 6.682 4.116 9.131 2.685 2.482 6.265 3.853 10.066 3.853 3.81 0 7.39-1.37 10.076-3.86 2.662-2.442 4.115-5.685 4.115-9.124 0-3.423-1.453-6.666-4.115-9.135-2.686-2.476-6.266-3.843-10.076-3.843-3.79 0-7.368 1.367-10.066 3.843-2.656 2.469-4.116 5.702-4.116 9.135m-5.702 15.692c-4.275-4.324-6.623-9.889-6.623-15.692 0-5.578 2.213-11.008 6.26-15.273 5.059-5.358 12.44-8.42 20.247-8.42 7.61 0 14.856 2.918 19.896 7.997 4.266 4.347 6.63 9.925 6.63 15.696 0 5.803-2.364 11.368-6.63 15.692-5.04 5.096-12.286 8.008-19.896 8.008-7.597 0-14.847-2.912-19.884-8.008m-14.204 62.103v-11.22h54.66v-28.209h-19.903v18.559h-12.559v-18.559H192.8v-11.178h86.104v11.178h-10.017v39.429zm21.143-68.785zM-168.254 497.754c-2.911 2.541-4.597 6.19-4.597 10.004 0 3.807 1.686 7.466 4.597 10.02 2.532 2.204 5.807 3.42 9.224 3.42 3.407 0 6.672-1.216 9.197-3.42 2.928-2.554 4.6-6.197 4.6-10.02 0-7.414-6.18-13.443-13.797-13.443a14.028 14.028 0 0 0-9.224 3.44m-16.978 10.003c0-6.466 2.643-12.59 7.43-17.224 4.964-4.833 11.634-7.482 18.772-7.482 7.122 0 13.788 2.649 18.765 7.482 4.777 4.633 7.423 10.758 7.423 17.224 0 6.476-2.646 12.607-7.423 17.24-4.977 4.82-11.65 7.48-18.765 7.48-14.454 0-26.202-11.09-26.202-24.72M-120.009 533.04v-64.803h12.683v32.356h12.89v11.397h-12.89v21.05zM-165.75 471.677v-25.638c0-5.833 4.745-10.584 10.574-10.584h48.364v11.397h-46.285v24.825z" style="fill:#4f4c4d;fill-opacity:1;fill-rule:nonzero;stroke:none;stroke-width:3.27889" transform="matrix(1.33333 0 0 -1.33333 246.976 917.875)"/><path d="M-20.53 533.06v-21.34h-18.277v-11.137h18.276v-33.445h12.637v65.922z" style="fill:#4f4c4d;fill-opacity:1;fill-rule:evenodd;stroke:none;stroke-width:3.27889" transform="matrix(1.33333 0 0 -1.33333 246.976 917.875)"/><path d="M-67.511 471.69v-25.651c0-5.824 4.738-10.584 10.568-10.584h49.298v11.397h-47.226v24.838zM-84.738 530.908v-11.293h17.981v-.97c0-18.434-11.718-27.16-21.535-31.258l-.318-.124 6.708-8.486.167.059c7.444 2.636 17.106 9.473 22.153 18.775 5.062-9.302 14.715-16.139 22.158-18.775l.174-.06 6.8 8.48-.317.131c-9.873 4.105-21.631 12.86-21.631 31.258v.97h17.991v11.293zM165.825 533.06v-23.405h-17.348v-10.863h17.348V467.38h12.64v65.68zM118.902 471.69v-25.651c0-5.824 4.751-10.584 10.578-10.584h49.298v11.397h-47.23v24.838zM103.798 531.017v-11.06h30.294c-1.138-15.158-14.371-27.185-34.622-31.408l-.374-.082 6.512-9.565.164.033c29.412 7.105 43.121 22.88 43.121 49.672v2.41zM350.477 533.06v-64.293h12.647v31.816h12.847v11.066h-12.847v21.41zM304.707 471.677v-25.638c0-5.823 4.751-10.584 10.588-10.584h48.357v11.397h-46.288v24.825zM292.408 531.1v-36.88c0-5.837 4.741-10.592 10.581-10.592h38.753v11.076h-36.68v25.336h36.031v11.06zM68.384 531.587v-17.12h-38.2v17.12H17.539v-44.311c0-5.84 4.741-10.584 10.578-10.584h14.86v-18.89H7.324v-11.27h84.022v11.27H55.707v18.89h14.74c5.836 0 10.58 4.744 10.58 10.584v44.31zm0-43.632h-38.2v15.453h38.2z" style="fill:#4f4c4d;fill-opacity:1;fill-rule:nonzero;stroke:none;stroke-width:3.27889" transform="matrix(1.33333 0 0 -1.33333 246.976 917.875)"/></svg>